<?xml version="1.0" encoding="UTF-8" standalone="no"?>
<svg
   xmlns:dc="http://purl.org/dc/elements/1.1/"
   xmlns:cc="http://creativecommons.org/ns#"
   xmlns:rdf="http://www.w3.org/1999/02/22-rdf-syntax-ns#"
   xmlns:svg="http://www.w3.org/2000/svg"
   xmlns="http://www.w3.org/2000/svg"
   xmlns:sodipodi="http://sodipodi.sourceforge.net/DTD/sodipodi-0.dtd"
   xmlns:inkscape="http://www.inkscape.org/namespaces/inkscape"
   version="1.0"
   width="300.000000pt"
   height="300.000000pt"
   viewBox="0 0 300.000000 300.000000"
   preserveAspectRatio="xMidYMid meet"
   id="svg94"
   sodipodi:docname="LTconsulting-v3-150x150.svg"
   inkscape:version="0.92.3 (2405546, 2018-03-11)">
  <defs
     id="defs98" />
  <sodipodi:namedview
     pagecolor="#ffffff"
     bordercolor="#666666"
     borderopacity="1"
     objecttolerance="10"
     gridtolerance="10"
     guidetolerance="10"
     inkscape:pageopacity="0"
     inkscape:pageshadow="2"
     inkscape:window-width="1920"
     inkscape:window-height="1047"
     id="namedview96"
     showgrid="false"
     inkscape:zoom="2.1225"
     inkscape:cx="169.2074"
     inkscape:cy="200"
     inkscape:window-x="1920"
     inkscape:window-y="0"
     inkscape:window-maximized="1"
     inkscape:current-layer="svg94" />
  <metadata
     id="metadata82">
Created by potrace 1.14, written by Peter Selinger 2001-2017
<rdf:RDF>
  <cc:Work
     rdf:about="">
    <dc:format>image/svg+xml</dc:format>
    <dc:type
       rdf:resource="http://purl.org/dc/dcmitype/StillImage" />
    <dc:title></dc:title>
  </cc:Work>
</rdf:RDF>
</metadata>
  <g
     transform="matrix(0.05,0,0,-0.05,76.088448,226.6)"
     id="g92"
     style="fill:#000000;stroke:none">
    <path
       d="m 569,2715 c -15,-8 -36,-29 -48,-47 -56,-89 -109,-151 -162,-190 -20,-14 -47,-43 -60,-65 -23,-37 -24,-45 -24,-233 0,-131 6,-244 19,-345 16,-126 17,-185 12,-370 -12,-377 -14,-414 -25,-468 -16,-79 -18,-283 -3,-347 7,-31 24,-69 37,-85 76,-93 155,-184 191,-222 39,-41 44,-43 97,-43 54,0 57,1 109,56 57,60 72,87 63,115 -8,24 -90,145 -125,184 -63,70 -63,73 -45,208 19,144 15,413 -10,682 -9,94 -20,247 -25,340 -6,94 -16,232 -23,307 l -13,137 36,6 c 62,11 67,14 103,73 50,81 75,236 45,274 -39,47 -99,60 -149,33 z"
       id="path84"
       inkscape:connector-curvature="0" />
    <path
       d="m 2298,2718 c -27,-21 -58,-81 -58,-111 0,-33 23,-80 47,-99 23,-17 100,-173 108,-218 7,-42 29,-488 28,-580 -2,-397 -13,-705 -28,-785 -20,-116 -34,-165 -51,-189 -8,-11 -14,-26 -14,-32 0,-34 -96,-210 -146,-269 -49,-57 -58,-74 -62,-116 -3,-36 -1,-50 9,-53 87,-25 107,-32 128,-45 13,-8 47,-15 75,-15 42,0 63,7 121,41 127,76 285,274 285,358 0,17 7,65 15,107 24,128 26,262 12,968 -10,563 -10,679 1,697 12,19 10,24 -15,51 -49,51 -230,212 -238,212 -4,0 -22,11 -39,24 -39,29 -119,66 -144,66 -10,0 -25,-6 -34,-12 z"
       id="path86"
       inkscape:connector-curvature="0" />
    <path
       d="m 1845,2152 c -22,-11 -48,-26 -56,-35 -11,-11 -91,-26 -275,-52 -142,-19 -268,-39 -279,-44 -11,-5 -97,-24 -192,-42 -146,-27 -178,-31 -210,-21 -75,22 -124,24 -144,6 -11,-10 -19,-23 -19,-31 0,-24 93,-194 122,-223 15,-16 49,-38 75,-50 27,-12 56,-26 65,-31 54,-28 193,6 374,92 45,22 103,42 130,45 27,3 76,14 109,24 33,10 89,21 125,24 36,3 102,14 148,23 75,16 84,16 98,1 27,-27 19,-155 -17,-294 -51,-192 -56,-206 -88,-276 -16,-38 -28,-68 -25,-68 3,0 -11,-30 -30,-67 -19,-38 -37,-75 -41,-83 -44,-108 -282,-367 -360,-393 -59,-20 -57,-44 6,-101 28,-25 60,-46 71,-46 11,0 51,-7 88,-16 38,-10 80,-14 95,-10 15,4 59,39 98,77 40,39 97,92 127,118 81,68 210,214 210,238 0,4 25,57 55,118 30,60 55,117 55,127 0,22 36,104 49,112 5,4 21,39 36,79 15,39 40,104 55,142 82,204 82,205 81,302 -1,51 -5,103 -10,117 -15,39 -204,173 -301,213 -106,44 -170,51 -225,25 z"
       id="path88"
       inkscape:connector-curvature="0" />
    <path
       d="m 643,1670 c -12,-5 -24,-18 -28,-30 -9,-28 20,-104 48,-127 12,-10 33,-37 46,-61 33,-62 169,-263 195,-289 11,-12 37,-44 56,-73 105,-153 200,-268 243,-291 12,-7 23,-7 30,-1 7,5 33,12 58,14 42,5 53,13 143,102 77,77 104,112 131,170 19,40 37,86 38,102 12,99 46,177 109,252 31,37 35,67 13,99 -20,29 -145,123 -163,123 -8,0 -48,-29 -91,-64 -42,-35 -94,-69 -116,-75 -54,-17 -115,-44 -115,-53 0,-4 -21,-14 -47,-22 -27,-8 -62,-22 -80,-31 -42,-21 -49,-17 -158,97 -123,128 -150,148 -196,148 -21,0 -41,5 -44,10 -7,12 -42,12 -72,0 z m 771,-441 c -1,-19 -6,-45 -12,-59 -54,-131 -69,-164 -79,-167 -7,-3 -26,21 -43,51 -18,31 -36,59 -41,62 -31,19 8,61 91,100 14,6 34,21 44,33 26,29 41,22 40,-20 z"
       id="path90"
       inkscape:connector-curvature="0" />
  </g>
</svg>
